<?xml version="1.0" encoding="UTF-8"?>
<!DOCTYPE svg PUBLIC "-//W3C//DTD SVG 1.1//EN" "http://www.w3.org/Graphics/SVG/1.1/DTD/svg11.dtd">
<svg xmlns="http://www.w3.org/2000/svg" version="1.1" width="601px" height="431px" style="shape-rendering:geometricPrecision; text-rendering:geometricPrecision; image-rendering:optimizeQuality; fill-rule:evenodd; clip-rule:evenodd" xmlns:xlink="http://www.w3.org/1999/xlink">
<g><path style="opacity:0.965" fill="#2854a1" d="M 267.5,-0.5 C 290.833,-0.5 314.167,-0.5 337.5,-0.5C 340.858,1.69966 343.358,4.69966 345,8.5C 345.5,50.4987 345.667,92.4987 345.5,134.5C 366.503,134.333 387.503,134.5 408.5,135C 414.235,135.772 417.735,138.938 419,144.5C 419.5,163.83 419.667,183.164 419.5,202.5C 432.6,201.809 444.933,198.476 456.5,192.5C 441.805,165.125 440.639,137.125 453,108.5C 456.827,98.8332 462.161,90.1665 469,82.5C 497.575,96.9453 515.075,119.945 521.5,151.5C 536.781,149.024 552.115,148.857 567.5,151C 579.787,153.149 590.787,157.982 600.5,165.5C 600.5,167.167 600.5,168.833 600.5,170.5C 588.957,199.191 567.957,217.024 537.5,224C 527.582,225.824 517.582,226.658 507.5,226.5C 461.661,351.975 371.994,419.975 238.5,430.5C 219.167,430.5 199.833,430.5 180.5,430.5C 145.633,428.421 112.299,419.921 80.5,405C 49.6015,385.42 28.1015,358.253 16,323.5C 7.34606,299.05 1.84606,274.05 -0.5,248.5C -0.5,239.167 -0.5,229.833 -0.5,220.5C 2.16775,213.659 6.83442,208.492 13.5,205C 21.7492,203.594 30.0826,203.094 38.5,203.5C 38.3334,184.164 38.5,164.83 39,145.5C 40.5,140 44,136.5 49.5,135C 70.164,134.5 90.8306,134.333 111.5,134.5C 111.333,115.83 111.5,97.1637 112,78.5C 112.556,73.6107 115.056,70.1107 119.5,68C 166.12,66.5198 212.786,66.0198 259.5,66.5C 259.333,47.1638 259.5,27.8305 260,8.5C 261.614,4.72286 264.114,1.72286 267.5,-0.5 Z"/></g>
<g><path style="opacity:1" fill="#2495eb" d="M 274.5,10.5 C 293.593,10.0254 312.593,10.5254 331.5,12C 332,12.5 332.5,13 333,13.5C 333.667,30.5 333.667,47.5 333,64.5C 332.097,65.7014 330.931,66.5348 329.5,67C 311.167,67.6667 292.833,67.6667 274.5,67C 273.667,66.1667 272.833,65.3333 272,64.5C 271.333,47.5 271.333,30.5 272,13.5C 273.045,12.6266 273.878,11.6266 274.5,10.5 Z"/></g>
<g><path style="opacity:1" fill="#2756a4" d="M 282.5,22.5 C 284.5,22.5 286.5,22.5 288.5,22.5C 288.5,33.5 288.5,44.5 288.5,55.5C 286.5,55.5 284.5,55.5 282.5,55.5C 282.5,44.5 282.5,33.5 282.5,22.5 Z"/></g>
<g><path style="opacity:1" fill="#2756a4" d="M 299.5,22.5 C 301.5,22.5 303.5,22.5 305.5,22.5C 305.5,33.5 305.5,44.5 305.5,55.5C 303.5,55.5 301.5,55.5 299.5,55.5C 299.5,44.5 299.5,33.5 299.5,22.5 Z"/></g>
<g><path style="opacity:1" fill="#2756a4" d="M 316.5,22.5 C 318.5,22.5 320.5,22.5 322.5,22.5C 322.5,33.5 322.5,44.5 322.5,55.5C 320.5,55.5 318.5,55.5 316.5,55.5C 316.5,44.5 316.5,33.5 316.5,22.5 Z"/></g>
<g><path style="opacity:1" fill="#2493e9" d="M 127.5,78.5 C 145.836,78.3334 164.17,78.5001 182.5,79C 183.667,80.1667 184.833,81.3333 186,82.5C 186.667,98.8333 186.667,115.167 186,131.5C 184.833,132.667 183.667,133.833 182.5,135C 163.41,135.974 144.41,135.641 125.5,134C 124.874,133.25 124.374,132.416 124,131.5C 123.333,115.167 123.333,98.8333 124,82.5C 124.69,80.6498 125.856,79.3164 127.5,78.5 Z"/></g>
<g><path style="opacity:1" fill="#2492e9" d="M 201.5,78.5 C 220.593,78.0254 239.593,78.5254 258.5,80C 259.126,80.7504 259.626,81.5838 260,82.5C 260.167,90.6667 260.333,98.8333 260.5,107C 260.64,115.93 260.14,124.763 259,133.5C 258.25,134.126 257.416,134.626 256.5,135C 238.167,135.667 219.833,135.667 201.5,135C 200.333,133.833 199.167,132.667 198,131.5C 197.333,115.167 197.333,98.8333 198,82.5C 199.376,81.2949 200.542,79.9616 201.5,78.5 Z"/></g>
<g><path style="opacity:1" fill="#2495eb" d="M 274.5,78.5 C 293.593,78.0254 312.593,78.5254 331.5,80C 332,80.5 332.5,81 333,81.5C 333.667,98.5 333.667,115.5 333,132.5C 332.097,133.701 330.931,134.535 329.5,135C 311.167,135.667 292.833,135.667 274.5,135C 273.667,134.167 272.833,133.333 272,132.5C 271.333,115.5 271.333,98.5 272,81.5C 273.045,80.6266 273.878,79.6266 274.5,78.5 Z"/></g>
<g><path style="opacity:1" fill="#2854a1" d="M 135.5,90.5 C 137.167,90.5 138.833,90.5 140.5,90.5C 140.5,101.5 140.5,112.5 140.5,123.5C 138.833,123.5 137.167,123.5 135.5,123.5C 135.5,112.5 135.5,101.5 135.5,90.5 Z"/></g>
<g><path style="opacity:1" fill="#2854a1" d="M 152.5,90.5 C 154.167,90.5 155.833,90.5 157.5,90.5C 157.5,101.5 157.5,112.5 157.5,123.5C 155.833,123.5 154.167,123.5 152.5,123.5C 152.5,112.5 152.5,101.5 152.5,90.5 Z"/></g>
<g><path style="opacity:1" fill="#2854a1" d="M 169.5,90.5 C 171.167,90.5 172.833,90.5 174.5,90.5C 174.5,101.5 174.5,112.5 174.5,123.5C 172.833,123.5 171.167,123.5 169.5,123.5C 169.5,112.5 169.5,101.5 169.5,90.5 Z"/></g>
<g><path style="opacity:1" fill="#2854a1" d="M 209.5,90.5 C 211.167,90.5 212.833,90.5 214.5,90.5C 214.5,101.5 214.5,112.5 214.5,123.5C 212.833,123.5 211.167,123.5 209.5,123.5C 209.5,112.5 209.5,101.5 209.5,90.5 Z"/></g>
<g><path style="opacity:1" fill="#2854a1" d="M 226.5,90.5 C 228.167,90.5 229.833,90.5 231.5,90.5C 231.5,101.5 231.5,112.5 231.5,123.5C 229.833,123.5 228.167,123.5 226.5,123.5C 226.5,112.5 226.5,101.5 226.5,90.5 Z"/></g>
<g><path style="opacity:1" fill="#2854a1" d="M 243.5,90.5 C 245.167,90.5 246.833,90.5 248.5,90.5C 248.5,101.5 248.5,112.5 248.5,123.5C 246.833,123.5 245.167,123.5 243.5,123.5C 243.5,112.5 243.5,101.5 243.5,90.5 Z"/></g>
<g><path style="opacity:1" fill="#2756a4" d="M 282.5,90.5 C 284.5,90.5 286.5,90.5 288.5,90.5C 288.5,101.5 288.5,112.5 288.5,123.5C 286.5,123.5 284.5,123.5 282.5,123.5C 282.5,112.5 282.5,101.5 282.5,90.5 Z"/></g>
<g><path style="opacity:1" fill="#2756a4" d="M 299.5,90.5 C 301.5,90.5 303.5,90.5 305.5,90.5C 305.5,101.5 305.5,112.5 305.5,123.5C 303.5,123.5 301.5,123.5 299.5,123.5C 299.5,112.5 299.5,101.5 299.5,90.5 Z"/></g>
<g><path style="opacity:1" fill="#2756a4" d="M 316.5,90.5 C 318.5,90.5 320.5,90.5 322.5,90.5C 322.5,101.5 322.5,112.5 322.5,123.5C 320.5,123.5 318.5,123.5 316.5,123.5C 316.5,112.5 316.5,101.5 316.5,90.5 Z"/></g>
<g><path style="opacity:1" fill="#2495ec" d="M 235.5,419.5 C 235.611,418.883 235.944,418.383 236.5,418C 211.269,409.425 189.769,395.259 172,375.5C 166.916,368.934 161.749,362.601 156.5,356.5C 159.33,354.638 160.163,351.971 159,348.5C 157.883,346.876 156.383,345.876 154.5,345.5C 122.826,363.947 88.8262,370.447 52.5,365C 44.0857,355.234 37.2523,344.401 32,332.5C 17.0545,297.378 10.0545,260.712 11,222.5C 12.263,218.781 14.763,216.281 18.5,215C 151.5,214.667 284.5,214.333 417.5,214C 433.161,213.001 448.161,209.335 462.5,203C 466.282,201.046 469.615,198.546 472.5,195.5C 456.583,174.479 452.083,151.145 459,125.5C 461.659,115.185 466.159,105.852 472.5,97.5C 496.555,113.262 509.555,135.595 511.5,164.5C 531.817,159.444 552.151,159.278 572.5,164C 578.127,165.472 583.127,167.972 587.5,171.5C 576.646,193.939 558.979,207.772 534.5,213C 522.959,214.006 511.459,214.839 500,215.5C 485.67,256.852 464.67,294.186 437,327.5C 393.676,374.753 340.176,403.586 276.5,414C 262.84,415.984 249.173,417.817 235.5,419.5 Z"/></g>
<g><path style="opacity:1" fill="#2494ea" d="M 53.5,146.5 C 72.5465,146.179 91.5465,146.513 110.5,147.5C 111.333,148.5 112.167,149.5 113,150.5C 113.97,167.258 113.637,183.925 112,200.5C 111.097,201.701 109.931,202.535 108.5,203C 90.5,203.667 72.5,203.667 54.5,203C 53,202.167 51.8333,201 51,199.5C 50.3333,182.833 50.3333,166.167 51,149.5C 52.045,148.627 52.8783,147.627 53.5,146.5 Z"/></g>
<g><path style="opacity:1" fill="#2493e9" d="M 127.5,146.5 C 146.593,146.025 165.593,146.525 184.5,148C 185.126,148.75 185.626,149.584 186,150.5C 186.167,158.5 186.333,166.5 186.5,174.5C 186.639,183.264 186.139,191.93 185,200.5C 184.167,201.333 183.333,202.167 182.5,203C 164.167,203.667 145.833,203.667 127.5,203C 126.333,201.833 125.167,200.667 124,199.5C 123.333,183.167 123.333,166.833 124,150.5C 124.69,148.65 125.856,147.316 127.5,146.5 Z"/></g>
<g><path style="opacity:1" fill="#2492e9" d="M 201.5,146.5 C 220.593,146.025 239.593,146.525 258.5,148C 259.126,148.75 259.626,149.584 260,150.5C 260.667,166.833 260.667,183.167 260,199.5C 258.833,200.667 257.667,201.833 256.5,203C 238.167,203.667 219.833,203.667 201.5,203C 200.333,201.833 199.167,200.667 198,199.5C 197.333,183.167 197.333,166.833 198,150.5C 199.032,148.973 200.199,147.64 201.5,146.5 Z"/></g>
<g><path style="opacity:1" fill="#2495ec" d="M 274.5,146.5 C 293.17,146.333 311.836,146.5 330.5,147C 331.333,147.833 332.167,148.667 333,149.5C 333.971,166.925 333.638,184.258 332,201.5C 331.25,202.126 330.416,202.626 329.5,203C 320.5,203.167 311.5,203.333 302.5,203.5C 292.738,203.642 283.071,203.142 273.5,202C 273,201.5 272.5,201 272,200.5C 271.333,183.5 271.333,166.5 272,149.5C 273.045,148.627 273.878,147.627 274.5,146.5 Z"/></g>
<g><path style="opacity:1" fill="#2495ec" d="M 348.5,146.5 C 367.17,146.333 385.836,146.5 404.5,147C 405.333,147.833 406.167,148.667 407,149.5C 407.971,166.925 407.638,184.258 406,201.5C 405.25,202.126 404.416,202.626 403.5,203C 394.5,203.167 385.5,203.333 376.5,203.5C 366.738,203.642 357.071,203.142 347.5,202C 347,201.5 346.5,201 346,200.5C 345.333,183.5 345.333,166.5 346,149.5C 347.045,148.627 347.878,147.627 348.5,146.5 Z"/></g>
<g><path style="opacity:1" fill="#2858a6" d="M 62.5,157.5 C 64.1439,157.286 65.6439,157.62 67,158.5C 67.4998,169.495 67.6665,180.495 67.5,191.5C 65.5,191.5 63.5,191.5 61.5,191.5C 61.1894,180.086 61.5227,168.752 62.5,157.5 Z"/></g>
<g><path style="opacity:1" fill="#2858a6" d="M 79.5,157.5 C 81.1439,157.286 82.6439,157.62 84,158.5C 84.4998,169.495 84.6665,180.495 84.5,191.5C 82.5,191.5 80.5,191.5 78.5,191.5C 78.1894,180.086 78.5227,168.752 79.5,157.5 Z"/></g>
<g><path style="opacity:1" fill="#2858a6" d="M 96.5,157.5 C 98.1439,157.286 99.6439,157.62 101,158.5C 101.5,169.495 101.667,180.495 101.5,191.5C 99.5,191.5 97.5,191.5 95.5,191.5C 95.1894,180.086 95.5227,168.752 96.5,157.5 Z"/></g>
<g><path style="opacity:1" fill="#2854a1" d="M 135.5,158.5 C 137.167,158.5 138.833,158.5 140.5,158.5C 140.5,169.5 140.5,180.5 140.5,191.5C 138.833,191.5 137.167,191.5 135.5,191.5C 135.5,180.5 135.5,169.5 135.5,158.5 Z"/></g>
<g><path style="opacity:1" fill="#2854a1" d="M 152.5,158.5 C 154.167,158.5 155.833,158.5 157.5,158.5C 157.5,169.5 157.5,180.5 157.5,191.5C 155.833,191.5 154.167,191.5 152.5,191.5C 152.5,180.5 152.5,169.5 152.5,158.5 Z"/></g>
<g><path style="opacity:1" fill="#2854a1" d="M 169.5,158.5 C 171.167,158.5 172.833,158.5 174.5,158.5C 174.5,169.5 174.5,180.5 174.5,191.5C 172.833,191.5 171.167,191.5 169.5,191.5C 169.5,180.5 169.5,169.5 169.5,158.5 Z"/></g>
<g><path style="opacity:1" fill="#2854a1" d="M 209.5,158.5 C 211.167,158.5 212.833,158.5 214.5,158.5C 214.5,169.5 214.5,180.5 214.5,191.5C 212.833,191.5 211.167,191.5 209.5,191.5C 209.5,180.5 209.5,169.5 209.5,158.5 Z"/></g>
<g><path style="opacity:1" fill="#2854a1" d="M 226.5,158.5 C 228.167,158.5 229.833,158.5 231.5,158.5C 231.5,169.5 231.5,180.5 231.5,191.5C 229.833,191.5 228.167,191.5 226.5,191.5C 226.5,180.5 226.5,169.5 226.5,158.5 Z"/></g>
<g><path style="opacity:1" fill="#2854a1" d="M 243.5,158.5 C 245.167,158.5 246.833,158.5 248.5,158.5C 248.5,169.5 248.5,180.5 248.5,191.5C 246.833,191.5 245.167,191.5 243.5,191.5C 243.5,180.5 243.5,169.5 243.5,158.5 Z"/></g>
<g><path style="opacity:1" fill="#2757a5" d="M 283.5,157.5 C 285.144,157.286 286.644,157.62 288,158.5C 288.5,169.495 288.667,180.495 288.5,191.5C 286.5,191.5 284.5,191.5 282.5,191.5C 282.189,180.086 282.523,168.752 283.5,157.5 Z"/></g>
<g><path style="opacity:1" fill="#2757a5" d="M 300.5,157.5 C 302.144,157.286 303.644,157.62 305,158.5C 305.5,169.495 305.667,180.495 305.5,191.5C 303.5,191.5 301.5,191.5 299.5,191.5C 299.189,180.086 299.523,168.752 300.5,157.5 Z"/></g>
<g><path style="opacity:1" fill="#2757a5" d="M 317.5,157.5 C 319.144,157.286 320.644,157.62 322,158.5C 322.5,169.495 322.667,180.495 322.5,191.5C 320.5,191.5 318.5,191.5 316.5,191.5C 316.189,180.086 316.523,168.752 317.5,157.5 Z"/></g>
<g><path style="opacity:1" fill="#2757a4" d="M 357.5,157.5 C 359.144,157.286 360.644,157.62 362,158.5C 362.5,169.495 362.667,180.495 362.5,191.5C 360.5,191.5 358.5,191.5 356.5,191.5C 356.189,180.086 356.523,168.752 357.5,157.5 Z"/></g>
<g><path style="opacity:1" fill="#2757a4" d="M 374.5,157.5 C 376.144,157.286 377.644,157.62 379,158.5C 379.5,169.495 379.667,180.495 379.5,191.5C 377.5,191.5 375.5,191.5 373.5,191.5C 373.189,180.086 373.523,168.752 374.5,157.5 Z"/></g>
<g><path style="opacity:1" fill="#2757a4" d="M 391.5,157.5 C 393.144,157.286 394.644,157.62 396,158.5C 396.5,169.495 396.667,180.495 396.5,191.5C 394.5,191.5 392.5,191.5 390.5,191.5C 390.189,180.086 390.523,168.752 391.5,157.5 Z"/></g>
<g><path style="opacity:1" fill="#f9fbfd" d="M 186.5,294.5 C 204.648,293.148 212.815,301.481 211,319.5C 205.833,332.122 196.667,336.289 183.5,332C 172.189,324.401 169.689,314.567 176,302.5C 178.94,298.963 182.44,296.297 186.5,294.5 Z"/></g>
<g><path style="opacity:1" fill="#2e57a3" d="M 189.5,302.5 C 193.462,301.865 194.795,303.198 193.5,306.5C 194.632,311.565 197.632,313.232 202.5,311.5C 203.718,321.78 199.052,326.28 188.5,325C 182.092,321.677 179.925,316.511 182,309.5C 183.742,306.254 186.242,303.921 189.5,302.5 Z"/></g>
<g><path style="opacity:1" fill="#fcfdfe" d="M 156.5,356.5 C 161.749,362.601 166.916,368.934 172,375.5C 189.769,395.259 211.269,409.425 236.5,418C 235.944,418.383 235.611,418.883 235.5,419.5C 196.575,422.098 158.242,418.598 120.5,409C 99.0028,403.088 80.0028,392.754 63.5,378C 96.6619,379.791 127.662,372.625 156.5,356.5 Z"/></g>
<g><path style="opacity:0.646" fill="#2853a1" d="M 386.5,400.5 C 396.212,399.709 400.045,404.042 398,413.5C 392.667,418.833 387.333,418.833 382,413.5C 380.243,407.825 381.743,403.492 386.5,400.5 Z M 386.5,413.5 C 384.171,411.004 384.004,408.337 386,405.5C 386.497,408.146 386.664,410.813 386.5,413.5 Z M 394.5,406.5 C 395.788,408.035 395.788,409.701 394.5,411.5C 393.566,409.905 393.566,408.239 394.5,406.5 Z M 386.5,413.5 C 387.5,413.5 388.5,413.5 389.5,413.5C 389.351,412.448 389.517,411.448 390,410.5C 390.5,412.333 391.667,413.5 393.5,414C 391.003,415.743 388.67,415.576 386.5,413.5 Z"/></g>
</svg>
