<svg xmlns="http://www.w3.org/2000/svg" xmlns:xlink="http://www.w3.org/1999/xlink" width="800" zoomAndPan="magnify" viewBox="0 0 600 449.999984" height="600" preserveAspectRatio="xMidYMid meet" version="1.0"><path fill="#05386b" d="M 299.59375 135 C 249.011719 135 208.121094 176.25 208.121094 227.28125 C 208.121094 268.074219 234.320312 302.605469 270.667969 314.824219 C 275.210938 315.746094 276.875 312.839844 276.875 310.398438 C 276.875 308.257812 276.726562 300.925781 276.726562 293.285156 C 251.28125 298.785156 245.984375 282.28125 245.984375 282.28125 C 241.894531 271.589844 235.835938 268.839844 235.835938 268.839844 C 227.507812 263.1875 236.441406 263.1875 236.441406 263.1875 C 245.679688 263.796875 250.527344 272.660156 250.527344 272.660156 C 258.703125 286.714844 271.878906 282.742188 277.179688 280.296875 C 277.9375 274.339844 280.359375 270.214844 282.9375 267.921875 C 262.640625 265.78125 241.289062 257.839844 241.289062 222.390625 C 241.289062 212.308594 244.921875 204.058594 250.675781 197.640625 C 249.769531 195.351562 246.585938 185.875 251.585938 173.195312 C 251.585938 173.195312 259.308594 170.75 276.726562 182.667969 C 284.214844 180.640625 291.835938 179.621094 299.59375 179.613281 C 307.316406 179.613281 315.191406 180.683594 322.460938 182.667969 C 339.878906 170.75 347.601562 173.195312 347.601562 173.195312 C 352.601562 185.875 349.417969 195.351562 348.511719 197.640625 C 354.417969 204.058594 357.898438 212.308594 357.898438 222.390625 C 357.898438 257.839844 336.546875 265.628906 316.101562 267.921875 C 319.433594 270.824219 322.308594 276.324219 322.308594 285.035156 C 322.308594 297.410156 322.160156 307.339844 322.160156 310.394531 C 322.160156 312.839844 323.828125 315.746094 328.367188 314.828125 C 364.714844 302.601562 390.914062 268.074219 390.914062 227.28125 C 391.066406 176.25 350.023438 135 299.59375 135 Z M 299.59375 135 " fill-opacity="1" fill-rule="evenodd"/></svg>