<svg xmlns="http://www.w3.org/2000/svg" xmlns:xlink="http://www.w3.org/1999/xlink" width="800" zoomAndPan="magnify" viewBox="0 0 600 449.999984" height="600" preserveAspectRatio="xMidYMid meet" version="1.0"><path fill="#05386b" d="M 374.960938 135 L 225.128906 135 C 216.84375 135 210.179688 141.753906 210.179688 149.949219 L 210.179688 300.050781 C 210.179688 308.335938 216.933594 315 225.128906 315 L 374.871094 315 C 383.15625 315 389.820312 308.246094 389.820312 300.050781 L 389.820312 149.949219 C 389.910156 141.753906 383.246094 135 374.960938 135 Z M 263.398438 283.484375 L 236.832031 283.484375 L 236.832031 203.703125 L 263.398438 203.703125 Z M 250.070312 194.070312 C 241.695312 194.070312 234.941406 187.316406 234.941406 178.941406 C 234.941406 170.566406 241.695312 163.8125 250.070312 163.8125 C 258.445312 163.8125 265.199219 170.566406 265.199219 178.941406 C 265.199219 187.316406 258.445312 194.070312 250.070312 194.070312 Z M 363.347656 283.484375 L 336.691406 283.484375 L 336.0625 236.121094 C 336.0625 236.121094 336.691406 223.515625 322.917969 223.605469 C 309.140625 223.695312 307.25 236.121094 307.25 236.121094 L 307.25 283.484375 L 280.414062 283.484375 L 280.414062 203.703125 L 306.167969 203.703125 L 306.167969 214.691406 C 306.167969 214.691406 307.25 211.089844 313.191406 206.855469 C 319.132812 202.625 328.949219 201.722656 333.179688 201.902344 C 337.414062 202.082031 343.175781 201.363281 352.8125 208.027344 C 363.167969 215.140625 363.4375 233.78125 363.4375 233.78125 Z M 363.347656 283.484375 " fill-opacity="1" fill-rule="nonzero"/></svg>